<mxfile host="app.diagrams.net" agent="Mozilla/5.0 (Windows NT 10.0; Win64; x64) AppleWebKit/537.36 (KHTML, like Gecko) Chrome/141.0.0.0 Safari/537.36" version="27.0.5">
  <diagram name="Страница — 1" id="oWjIXsU3mf1akvwN-b04">
    <mxGraphModel dx="1395" dy="888" grid="1" gridSize="10" guides="1" tooltips="1" connect="1" arrows="1" fold="1" page="1" pageScale="1" pageWidth="1169" pageHeight="827" math="0" shadow="0">
      <root>
        <mxCell id="0" />
        <mxCell id="1" parent="0" />
        <mxCell id="Pe6e0rsCghZo0KKIEObm-4" value="Персона" style="swimlane;fontStyle=0;childLayout=stackLayout;horizontal=1;startSize=26;fillColor=none;horizontalStack=0;resizeParent=1;resizeParentMax=0;resizeLast=0;collapsible=1;marginBottom=0;whiteSpace=wrap;html=1;fontSize=13;" parent="1" vertex="1">
          <mxGeometry x="750" y="319" width="180" height="260" as="geometry" />
        </mxCell>
        <mxCell id="eT4LEZ8fYCW7e159eP6c-8" value="Числовой идентификатор персоны" style="text;strokeColor=none;fillColor=none;align=left;verticalAlign=top;spacingLeft=4;spacingRight=4;overflow=hidden;rotatable=0;points=[[0,0.5],[1,0.5]];portConstraint=eastwest;whiteSpace=wrap;html=1;fontSize=13;" parent="Pe6e0rsCghZo0KKIEObm-4" vertex="1">
          <mxGeometry y="26" width="180" height="38" as="geometry" />
        </mxCell>
        <mxCell id="Pe6e0rsCghZo0KKIEObm-5" value="Фамилия" style="text;strokeColor=none;fillColor=none;align=left;verticalAlign=top;spacingLeft=4;spacingRight=4;overflow=hidden;rotatable=0;points=[[0,0.5],[1,0.5]];portConstraint=eastwest;whiteSpace=wrap;html=1;fontSize=13;" parent="Pe6e0rsCghZo0KKIEObm-4" vertex="1">
          <mxGeometry y="64" width="180" height="26" as="geometry" />
        </mxCell>
        <mxCell id="Pe6e0rsCghZo0KKIEObm-6" value="Имя" style="text;strokeColor=none;fillColor=none;align=left;verticalAlign=top;spacingLeft=4;spacingRight=4;overflow=hidden;rotatable=0;points=[[0,0.5],[1,0.5]];portConstraint=eastwest;whiteSpace=wrap;html=1;fontSize=13;" parent="Pe6e0rsCghZo0KKIEObm-4" vertex="1">
          <mxGeometry y="90" width="180" height="26" as="geometry" />
        </mxCell>
        <mxCell id="Pe6e0rsCghZo0KKIEObm-7" value="Отчество" style="text;strokeColor=none;fillColor=none;align=left;verticalAlign=top;spacingLeft=4;spacingRight=4;overflow=hidden;rotatable=0;points=[[0,0.5],[1,0.5]];portConstraint=eastwest;whiteSpace=wrap;html=1;fontSize=13;" parent="Pe6e0rsCghZo0KKIEObm-4" vertex="1">
          <mxGeometry y="116" width="180" height="26" as="geometry" />
        </mxCell>
        <mxCell id="Pe6e0rsCghZo0KKIEObm-11" value="Числовой идентификатор пола персоны" style="text;strokeColor=none;fillColor=none;align=left;verticalAlign=top;spacingLeft=4;spacingRight=4;overflow=hidden;rotatable=0;points=[[0,0.5],[1,0.5]];portConstraint=eastwest;whiteSpace=wrap;html=1;fontSize=13;" parent="Pe6e0rsCghZo0KKIEObm-4" vertex="1">
          <mxGeometry y="142" width="180" height="40" as="geometry" />
        </mxCell>
        <mxCell id="Pe6e0rsCghZo0KKIEObm-10" value="Дата рождения" style="text;strokeColor=none;fillColor=none;align=left;verticalAlign=top;spacingLeft=4;spacingRight=4;overflow=hidden;rotatable=0;points=[[0,0.5],[1,0.5]];portConstraint=eastwest;whiteSpace=wrap;html=1;fontSize=13;" parent="Pe6e0rsCghZo0KKIEObm-4" vertex="1">
          <mxGeometry y="182" width="180" height="26" as="geometry" />
        </mxCell>
        <mxCell id="Pe6e0rsCghZo0KKIEObm-14" value="Дата смерти" style="text;strokeColor=none;fillColor=none;align=left;verticalAlign=top;spacingLeft=4;spacingRight=4;overflow=hidden;rotatable=0;points=[[0,0.5],[1,0.5]];portConstraint=eastwest;whiteSpace=wrap;html=1;fontSize=13;" parent="Pe6e0rsCghZo0KKIEObm-4" vertex="1">
          <mxGeometry y="208" width="180" height="26" as="geometry" />
        </mxCell>
        <mxCell id="Pe6e0rsCghZo0KKIEObm-13" value="Биография" style="text;strokeColor=none;fillColor=none;align=left;verticalAlign=top;spacingLeft=4;spacingRight=4;overflow=hidden;rotatable=0;points=[[0,0.5],[1,0.5]];portConstraint=eastwest;whiteSpace=wrap;html=1;fontSize=13;" parent="Pe6e0rsCghZo0KKIEObm-4" vertex="1">
          <mxGeometry y="234" width="180" height="26" as="geometry" />
        </mxCell>
        <mxCell id="Pe6e0rsCghZo0KKIEObm-15" value="&amp;nbsp; &amp;nbsp;Родственная связь&amp;nbsp;" style="swimlane;fontStyle=0;childLayout=stackLayout;horizontal=1;startSize=26;fillColor=none;horizontalStack=0;resizeParent=1;resizeParentMax=0;resizeLast=0;collapsible=1;marginBottom=0;whiteSpace=wrap;html=1;fontSize=13;" parent="1" vertex="1">
          <mxGeometry x="480" y="497" width="140" height="170" as="geometry">
            <mxRectangle x="480" y="497" width="150" height="30" as="alternateBounds" />
          </mxGeometry>
        </mxCell>
        <mxCell id="eT4LEZ8fYCW7e159eP6c-2" value="Персона 1" style="text;strokeColor=none;fillColor=none;align=left;verticalAlign=top;spacingLeft=4;spacingRight=4;overflow=hidden;rotatable=0;points=[[0,0.5],[1,0.5]];portConstraint=eastwest;whiteSpace=wrap;html=1;fontSize=13;" parent="Pe6e0rsCghZo0KKIEObm-15" vertex="1">
          <mxGeometry y="26" width="140" height="34" as="geometry" />
        </mxCell>
        <mxCell id="eT4LEZ8fYCW7e159eP6c-4" value="Персона 2" style="text;strokeColor=none;fillColor=none;align=left;verticalAlign=top;spacingLeft=4;spacingRight=4;overflow=hidden;rotatable=0;points=[[0,0.5],[1,0.5]];portConstraint=eastwest;whiteSpace=wrap;html=1;fontSize=13;" parent="Pe6e0rsCghZo0KKIEObm-15" vertex="1">
          <mxGeometry y="60" width="140" height="30" as="geometry" />
        </mxCell>
        <mxCell id="eT4LEZ8fYCW7e159eP6c-7" value="Числовой идентификатор установленного вида связи" style="text;strokeColor=none;fillColor=none;align=left;verticalAlign=top;spacingLeft=4;spacingRight=4;overflow=hidden;rotatable=0;points=[[0,0.5],[1,0.5]];portConstraint=eastwest;whiteSpace=wrap;html=1;fontSize=13;" parent="Pe6e0rsCghZo0KKIEObm-15" vertex="1">
          <mxGeometry y="90" width="140" height="80" as="geometry" />
        </mxCell>
        <mxCell id="Pe6e0rsCghZo0KKIEObm-37" value="" style="endArrow=none;endFill=1;endSize=24;html=1;rounded=0;startFill=1;entryX=0;entryY=0.091;entryDx=0;entryDy=0;exitX=0.5;exitY=0;exitDx=0;exitDy=0;strokeColor=default;align=center;verticalAlign=middle;fontFamily=Helvetica;fontSize=11;fontColor=default;labelBackgroundColor=default;startArrow=classic;entryPerimeter=0;" parent="1" source="V9V1Q51ZIN7lAQ6END5D-14" target="V9V1Q51ZIN7lAQ6END5D-4" edge="1">
          <mxGeometry width="160" relative="1" as="geometry">
            <mxPoint x="290" y="414" as="sourcePoint" />
            <mxPoint x="550" y="200" as="targetPoint" />
            <Array as="points">
              <mxPoint x="315" y="160" />
            </Array>
          </mxGeometry>
        </mxCell>
        <mxCell id="Pe6e0rsCghZo0KKIEObm-38" value="Изменяет" style="edgeLabel;html=1;align=center;verticalAlign=middle;resizable=0;points=[];fontSize=13;rounded=0;strokeColor=default;fontFamily=Helvetica;fontColor=default;labelBackgroundColor=default;" parent="Pe6e0rsCghZo0KKIEObm-37" vertex="1" connectable="0">
          <mxGeometry x="0.1642" y="-1" relative="1" as="geometry">
            <mxPoint x="-22" y="1" as="offset" />
          </mxGeometry>
        </mxCell>
        <mxCell id="Pe6e0rsCghZo0KKIEObm-39" value="Данные" style="swimlane;fontStyle=0;childLayout=stackLayout;horizontal=1;startSize=26;fillColor=none;horizontalStack=0;resizeParent=1;resizeParentMax=0;resizeLast=0;collapsible=1;marginBottom=0;whiteSpace=wrap;html=1;fontSize=13;" parent="1" vertex="1">
          <mxGeometry x="480" y="317" width="140" height="70" as="geometry">
            <mxRectangle x="510" y="317" width="80" height="30" as="alternateBounds" />
          </mxGeometry>
        </mxCell>
        <mxCell id="Pe6e0rsCghZo0KKIEObm-63" value="Дата последнего изменения" style="text;strokeColor=none;fillColor=none;align=left;verticalAlign=top;spacingLeft=4;spacingRight=4;overflow=hidden;rotatable=0;points=[[0,0.5],[1,0.5]];portConstraint=eastwest;whiteSpace=wrap;html=1;fontSize=13;" parent="Pe6e0rsCghZo0KKIEObm-39" vertex="1">
          <mxGeometry y="26" width="140" height="44" as="geometry" />
        </mxCell>
        <mxCell id="Pe6e0rsCghZo0KKIEObm-44" value="" style="endArrow=block;endFill=0;endSize=16;html=1;rounded=0;exitX=0;exitY=0.946;exitDx=0;exitDy=0;entryX=1.006;entryY=0.632;entryDx=0;entryDy=0;strokeColor=default;align=center;verticalAlign=middle;fontFamily=Helvetica;fontSize=13;fontColor=default;labelBackgroundColor=default;exitPerimeter=0;entryPerimeter=0;" parent="1" edge="1">
          <mxGeometry width="160" relative="1" as="geometry">
            <mxPoint x="749.16" y="383.396" as="sourcePoint" />
            <mxPoint x="619.9999999999999" y="384.608" as="targetPoint" />
          </mxGeometry>
        </mxCell>
        <mxCell id="Pe6e0rsCghZo0KKIEObm-66" value="Состоят из" style="edgeLabel;html=1;align=center;verticalAlign=middle;resizable=0;points=[];fontSize=13;rounded=0;strokeColor=default;fontFamily=Helvetica;fontColor=default;labelBackgroundColor=default;" parent="Pe6e0rsCghZo0KKIEObm-44" vertex="1" connectable="0">
          <mxGeometry x="0.0309" y="-1" relative="1" as="geometry">
            <mxPoint as="offset" />
          </mxGeometry>
        </mxCell>
        <mxCell id="Pe6e0rsCghZo0KKIEObm-47" value="" style="endArrow=none;endFill=1;endSize=24;html=1;rounded=0;startFill=1;exitX=0.006;exitY=0.154;exitDx=0;exitDy=0;entryX=1.009;entryY=0.046;entryDx=0;entryDy=0;exitPerimeter=0;entryPerimeter=0;strokeColor=default;align=center;verticalAlign=middle;fontFamily=Helvetica;fontSize=13;fontColor=default;labelBackgroundColor=default;startArrow=classic;" parent="1" source="Pe6e0rsCghZo0KKIEObm-10" target="Pe6e0rsCghZo0KKIEObm-15" edge="1">
          <mxGeometry width="160" relative="1" as="geometry">
            <mxPoint x="1180" y="338" as="sourcePoint" />
            <mxPoint x="630" y="514" as="targetPoint" />
          </mxGeometry>
        </mxCell>
        <mxCell id="Pe6e0rsCghZo0KKIEObm-48" value="Связывает" style="edgeLabel;html=1;align=center;verticalAlign=middle;resizable=0;points=[];fontSize=13;rounded=0;strokeColor=default;fontFamily=Helvetica;fontColor=default;labelBackgroundColor=default;" parent="Pe6e0rsCghZo0KKIEObm-47" vertex="1" connectable="0">
          <mxGeometry x="0.1642" y="-1" relative="1" as="geometry">
            <mxPoint as="offset" />
          </mxGeometry>
        </mxCell>
        <mxCell id="Pe6e0rsCghZo0KKIEObm-56" value="" style="endArrow=block;endFill=0;endSize=16;html=1;rounded=0;exitX=0.5;exitY=0;exitDx=0;exitDy=0;entryX=0.5;entryY=1;entryDx=0;entryDy=0;strokeColor=default;align=center;verticalAlign=middle;fontFamily=Helvetica;fontSize=13;fontColor=default;labelBackgroundColor=default;" parent="1" source="Pe6e0rsCghZo0KKIEObm-15" target="Pe6e0rsCghZo0KKIEObm-39" edge="1">
          <mxGeometry width="160" relative="1" as="geometry">
            <mxPoint x="560" y="507" as="sourcePoint" />
            <mxPoint x="560" y="405" as="targetPoint" />
          </mxGeometry>
        </mxCell>
        <mxCell id="Pe6e0rsCghZo0KKIEObm-67" value="Состоят из" style="edgeLabel;html=1;align=center;verticalAlign=middle;resizable=0;points=[];fontSize=13;rounded=0;strokeColor=default;fontFamily=Helvetica;fontColor=default;labelBackgroundColor=default;" parent="Pe6e0rsCghZo0KKIEObm-56" vertex="1" connectable="0">
          <mxGeometry x="-0.0182" relative="1" as="geometry">
            <mxPoint as="offset" />
          </mxGeometry>
        </mxCell>
        <mxCell id="Pe6e0rsCghZo0KKIEObm-58" value="" style="endArrow=none;endFill=1;endSize=24;html=1;rounded=0;startFill=1;exitX=0;exitY=0.632;exitDx=0;exitDy=0;exitPerimeter=0;startArrow=classic;" parent="1" source="V9V1Q51ZIN7lAQ6END5D-6" edge="1">
          <mxGeometry width="160" relative="1" as="geometry">
            <mxPoint x="630" y="340" as="sourcePoint" />
            <mxPoint x="600" y="170" as="targetPoint" />
            <Array as="points">
              <mxPoint x="690" y="170" />
            </Array>
          </mxGeometry>
        </mxCell>
        <mxCell id="Pe6e0rsCghZo0KKIEObm-59" value="Осуществляет поиск" style="edgeLabel;html=1;align=center;verticalAlign=middle;resizable=0;points=[];fontSize=13;" parent="Pe6e0rsCghZo0KKIEObm-58" vertex="1" connectable="0">
          <mxGeometry x="0.1642" y="-1" relative="1" as="geometry">
            <mxPoint as="offset" />
          </mxGeometry>
        </mxCell>
        <mxCell id="Pe6e0rsCghZo0KKIEObm-68" value="1" style="text;html=1;align=center;verticalAlign=middle;resizable=0;points=[];autosize=1;strokeColor=none;fillColor=none;" parent="1" vertex="1">
          <mxGeometry x="380" y="170" width="30" height="30" as="geometry" />
        </mxCell>
        <mxCell id="Pe6e0rsCghZo0KKIEObm-70" value="*" style="text;html=1;align=center;verticalAlign=middle;resizable=0;points=[];autosize=1;strokeColor=none;fillColor=none;" parent="1" vertex="1">
          <mxGeometry x="720" y="350" width="30" height="30" as="geometry" />
        </mxCell>
        <mxCell id="Pe6e0rsCghZo0KKIEObm-71" value="*" style="text;html=1;align=center;verticalAlign=middle;resizable=0;points=[];autosize=1;strokeColor=none;fillColor=none;" parent="1" vertex="1">
          <mxGeometry x="555" y="467" width="30" height="30" as="geometry" />
        </mxCell>
        <mxCell id="Pe6e0rsCghZo0KKIEObm-72" value="*" style="text;html=1;align=center;verticalAlign=middle;resizable=0;points=[];autosize=1;strokeColor=none;fillColor=none;" parent="1" vertex="1">
          <mxGeometry x="620" y="480" width="30" height="30" as="geometry" />
        </mxCell>
        <mxCell id="Pe6e0rsCghZo0KKIEObm-73" value="2" style="text;html=1;align=center;verticalAlign=middle;resizable=0;points=[];autosize=1;strokeColor=none;fillColor=none;" parent="1" vertex="1">
          <mxGeometry x="710" y="480" width="30" height="30" as="geometry" />
        </mxCell>
        <mxCell id="Pe6e0rsCghZo0KKIEObm-74" value="1" style="text;html=1;align=center;verticalAlign=middle;resizable=0;points=[];autosize=1;strokeColor=none;fillColor=none;" parent="1" vertex="1">
          <mxGeometry x="630" y="350" width="30" height="30" as="geometry" />
        </mxCell>
        <mxCell id="Pe6e0rsCghZo0KKIEObm-75" value="1" style="text;html=1;align=center;verticalAlign=middle;resizable=0;points=[];autosize=1;strokeColor=none;fillColor=none;" parent="1" vertex="1">
          <mxGeometry x="555" y="387" width="30" height="30" as="geometry" />
        </mxCell>
        <mxCell id="Yw1YEkHq75_yNaC5oLke-2" value="1" style="text;html=1;align=center;verticalAlign=middle;resizable=0;points=[];autosize=1;strokeColor=none;fillColor=none;" parent="1" vertex="1">
          <mxGeometry x="600" y="140" width="30" height="30" as="geometry" />
        </mxCell>
        <mxCell id="eT4LEZ8fYCW7e159eP6c-9" value="Вид связи" style="swimlane;fontStyle=0;childLayout=stackLayout;horizontal=1;startSize=26;fillColor=none;horizontalStack=0;resizeParent=1;resizeParentMax=0;resizeLast=0;collapsible=1;marginBottom=0;whiteSpace=wrap;html=1;fontSize=13;" parent="1" vertex="1">
          <mxGeometry x="790" y="600" width="140" height="120" as="geometry">
            <mxRectangle x="755" y="667" width="100" height="30" as="alternateBounds" />
          </mxGeometry>
        </mxCell>
        <mxCell id="eT4LEZ8fYCW7e159eP6c-14" value="Числовой идентификатор вида связи" style="text;strokeColor=none;fillColor=none;align=left;verticalAlign=top;spacingLeft=4;spacingRight=4;overflow=hidden;rotatable=0;points=[[0,0.5],[1,0.5]];portConstraint=eastwest;whiteSpace=wrap;html=1;fontSize=13;" parent="eT4LEZ8fYCW7e159eP6c-9" vertex="1">
          <mxGeometry y="26" width="140" height="62" as="geometry" />
        </mxCell>
        <mxCell id="eT4LEZ8fYCW7e159eP6c-15" value="Название вида связи" style="text;strokeColor=none;fillColor=none;align=left;verticalAlign=top;spacingLeft=4;spacingRight=4;overflow=hidden;rotatable=0;points=[[0,0.5],[1,0.5]];portConstraint=eastwest;whiteSpace=wrap;html=1;fontSize=13;" parent="eT4LEZ8fYCW7e159eP6c-9" vertex="1">
          <mxGeometry y="88" width="140" height="32" as="geometry" />
        </mxCell>
        <mxCell id="eT4LEZ8fYCW7e159eP6c-10" value="" style="endArrow=diamondThin;endFill=0;endSize=24;html=1;rounded=0;startFill=0;exitX=0;exitY=0.5;exitDx=0;exitDy=0;startArrow=none;strokeColor=default;align=center;verticalAlign=middle;fontFamily=Helvetica;fontSize=11;fontColor=default;labelBackgroundColor=default;" parent="1" source="eT4LEZ8fYCW7e159eP6c-14" edge="1">
          <mxGeometry width="160" relative="1" as="geometry">
            <mxPoint x="620" y="652" as="sourcePoint" />
            <mxPoint x="620" y="659" as="targetPoint" />
          </mxGeometry>
        </mxCell>
        <mxCell id="eT4LEZ8fYCW7e159eP6c-11" value="Характеризуется" style="edgeLabel;html=1;align=center;verticalAlign=middle;resizable=0;points=[];fontSize=13;rounded=0;strokeColor=default;fontFamily=Helvetica;fontColor=default;labelBackgroundColor=default;" parent="eT4LEZ8fYCW7e159eP6c-10" vertex="1" connectable="0">
          <mxGeometry x="0.1642" y="-1" relative="1" as="geometry">
            <mxPoint x="27" as="offset" />
          </mxGeometry>
        </mxCell>
        <mxCell id="eT4LEZ8fYCW7e159eP6c-12" value="*" style="text;html=1;align=center;verticalAlign=middle;resizable=0;points=[];autosize=1;strokeColor=none;fillColor=none;" parent="1" vertex="1">
          <mxGeometry x="620" y="620" width="30" height="30" as="geometry" />
        </mxCell>
        <mxCell id="eT4LEZ8fYCW7e159eP6c-13" value="1" style="text;html=1;align=center;verticalAlign=middle;resizable=0;points=[];autosize=1;strokeColor=none;fillColor=none;" parent="1" vertex="1">
          <mxGeometry x="760" y="620" width="30" height="30" as="geometry" />
        </mxCell>
        <mxCell id="V9V1Q51ZIN7lAQ6END5D-1" value="Управляющая система" style="swimlane;fontStyle=0;childLayout=stackLayout;horizontal=1;startSize=26;fillColor=none;horizontalStack=0;resizeParent=1;resizeParentMax=0;resizeLast=0;collapsible=1;marginBottom=0;whiteSpace=wrap;html=1;fontSize=13;" vertex="1" parent="1">
          <mxGeometry x="420" y="86" width="180" height="114" as="geometry">
            <mxRectangle x="510" y="317" width="80" height="30" as="alternateBounds" />
          </mxGeometry>
        </mxCell>
        <mxCell id="V9V1Q51ZIN7lAQ6END5D-3" value="Хранилище&amp;nbsp;персон" style="text;strokeColor=none;fillColor=none;align=left;verticalAlign=top;spacingLeft=4;spacingRight=4;overflow=hidden;rotatable=0;points=[[0,0.5],[1,0.5]];portConstraint=eastwest;whiteSpace=wrap;html=1;fontSize=13;" vertex="1" parent="V9V1Q51ZIN7lAQ6END5D-1">
          <mxGeometry y="26" width="180" height="44" as="geometry" />
        </mxCell>
        <mxCell id="V9V1Q51ZIN7lAQ6END5D-4" value="Хранилище связей" style="text;strokeColor=none;fillColor=none;align=left;verticalAlign=top;spacingLeft=4;spacingRight=4;overflow=hidden;rotatable=0;points=[[0,0.5],[1,0.5]];portConstraint=eastwest;whiteSpace=wrap;html=1;fontSize=13;" vertex="1" parent="V9V1Q51ZIN7lAQ6END5D-1">
          <mxGeometry y="70" width="180" height="44" as="geometry" />
        </mxCell>
        <mxCell id="V9V1Q51ZIN7lAQ6END5D-5" value="&lt;span style=&quot;text-align: left;&quot;&gt;Хранилище&amp;nbsp;персон&lt;/span&gt;" style="swimlane;fontStyle=0;childLayout=stackLayout;horizontal=1;startSize=26;fillColor=none;horizontalStack=0;resizeParent=1;resizeParentMax=0;resizeLast=0;collapsible=1;marginBottom=0;whiteSpace=wrap;html=1;fontSize=13;" vertex="1" parent="1">
          <mxGeometry x="920" y="120" width="180" height="90" as="geometry" />
        </mxCell>
        <mxCell id="V9V1Q51ZIN7lAQ6END5D-6" value="Список персон" style="text;strokeColor=none;fillColor=none;align=left;verticalAlign=top;spacingLeft=4;spacingRight=4;overflow=hidden;rotatable=0;points=[[0,0.5],[1,0.5]];portConstraint=eastwest;whiteSpace=wrap;html=1;fontSize=13;" vertex="1" parent="V9V1Q51ZIN7lAQ6END5D-5">
          <mxGeometry y="26" width="180" height="38" as="geometry" />
        </mxCell>
        <mxCell id="V9V1Q51ZIN7lAQ6END5D-7" value="Размер" style="text;strokeColor=none;fillColor=none;align=left;verticalAlign=top;spacingLeft=4;spacingRight=4;overflow=hidden;rotatable=0;points=[[0,0.5],[1,0.5]];portConstraint=eastwest;whiteSpace=wrap;html=1;fontSize=13;" vertex="1" parent="V9V1Q51ZIN7lAQ6END5D-5">
          <mxGeometry y="64" width="180" height="26" as="geometry" />
        </mxCell>
        <mxCell id="V9V1Q51ZIN7lAQ6END5D-14" value="&lt;span style=&quot;text-align: left;&quot;&gt;Хранилище&amp;nbsp;&lt;/span&gt;&lt;span style=&quot;text-align: left;&quot;&gt;связей&lt;/span&gt;" style="swimlane;fontStyle=0;childLayout=stackLayout;horizontal=1;startSize=26;fillColor=none;horizontalStack=0;resizeParent=1;resizeParentMax=0;resizeLast=0;collapsible=1;marginBottom=0;whiteSpace=wrap;html=1;fontSize=13;" vertex="1" parent="1">
          <mxGeometry x="240" y="257" width="150" height="90" as="geometry">
            <mxRectangle x="480" y="497" width="150" height="30" as="alternateBounds" />
          </mxGeometry>
        </mxCell>
        <mxCell id="V9V1Q51ZIN7lAQ6END5D-15" value="Список связей&amp;nbsp;" style="text;strokeColor=none;fillColor=none;align=left;verticalAlign=top;spacingLeft=4;spacingRight=4;overflow=hidden;rotatable=0;points=[[0,0.5],[1,0.5]];portConstraint=eastwest;whiteSpace=wrap;html=1;fontSize=13;" vertex="1" parent="V9V1Q51ZIN7lAQ6END5D-14">
          <mxGeometry y="26" width="150" height="34" as="geometry" />
        </mxCell>
        <mxCell id="V9V1Q51ZIN7lAQ6END5D-16" value="Размер" style="text;strokeColor=none;fillColor=none;align=left;verticalAlign=top;spacingLeft=4;spacingRight=4;overflow=hidden;rotatable=0;points=[[0,0.5],[1,0.5]];portConstraint=eastwest;whiteSpace=wrap;html=1;fontSize=13;" vertex="1" parent="V9V1Q51ZIN7lAQ6END5D-14">
          <mxGeometry y="60" width="150" height="30" as="geometry" />
        </mxCell>
        <mxCell id="V9V1Q51ZIN7lAQ6END5D-18" value="Пол" style="swimlane;fontStyle=0;childLayout=stackLayout;horizontal=1;startSize=26;fillColor=none;horizontalStack=0;resizeParent=1;resizeParentMax=0;resizeLast=0;collapsible=1;marginBottom=0;whiteSpace=wrap;html=1;fontSize=13;" vertex="1" parent="1">
          <mxGeometry x="1120" y="400" width="140" height="120" as="geometry">
            <mxRectangle x="755" y="667" width="100" height="30" as="alternateBounds" />
          </mxGeometry>
        </mxCell>
        <mxCell id="V9V1Q51ZIN7lAQ6END5D-19" value="Числовой идентификатор вида связи" style="text;strokeColor=none;fillColor=none;align=left;verticalAlign=top;spacingLeft=4;spacingRight=4;overflow=hidden;rotatable=0;points=[[0,0.5],[1,0.5]];portConstraint=eastwest;whiteSpace=wrap;html=1;fontSize=13;" vertex="1" parent="V9V1Q51ZIN7lAQ6END5D-18">
          <mxGeometry y="26" width="140" height="62" as="geometry" />
        </mxCell>
        <mxCell id="V9V1Q51ZIN7lAQ6END5D-20" value="Название вида связи" style="text;strokeColor=none;fillColor=none;align=left;verticalAlign=top;spacingLeft=4;spacingRight=4;overflow=hidden;rotatable=0;points=[[0,0.5],[1,0.5]];portConstraint=eastwest;whiteSpace=wrap;html=1;fontSize=13;" vertex="1" parent="V9V1Q51ZIN7lAQ6END5D-18">
          <mxGeometry y="88" width="140" height="32" as="geometry" />
        </mxCell>
        <mxCell id="V9V1Q51ZIN7lAQ6END5D-21" value="" style="endArrow=diamondThin;endFill=0;endSize=24;html=1;rounded=0;entryX=1;entryY=0.5;entryDx=0;entryDy=0;exitX=-0.014;exitY=0.871;exitDx=0;exitDy=0;exitPerimeter=0;" edge="1" parent="1" source="V9V1Q51ZIN7lAQ6END5D-19" target="Pe6e0rsCghZo0KKIEObm-11">
          <mxGeometry width="160" relative="1" as="geometry">
            <mxPoint x="950" y="659.5" as="sourcePoint" />
            <mxPoint x="1110" y="659.5" as="targetPoint" />
          </mxGeometry>
        </mxCell>
        <mxCell id="V9V1Q51ZIN7lAQ6END5D-22" value="Характеризуется" style="edgeLabel;html=1;align=center;verticalAlign=middle;resizable=0;points=[];fontSize=13;" vertex="1" connectable="0" parent="V9V1Q51ZIN7lAQ6END5D-21">
          <mxGeometry x="-0.1457" y="2" relative="1" as="geometry">
            <mxPoint y="-2" as="offset" />
          </mxGeometry>
        </mxCell>
        <mxCell id="V9V1Q51ZIN7lAQ6END5D-23" value="1" style="text;html=1;align=center;verticalAlign=middle;resizable=0;points=[];autosize=1;strokeColor=none;fillColor=none;" vertex="1" parent="1">
          <mxGeometry x="1080" y="437" width="30" height="30" as="geometry" />
        </mxCell>
        <mxCell id="V9V1Q51ZIN7lAQ6END5D-24" value="*" style="text;html=1;align=center;verticalAlign=middle;resizable=0;points=[];autosize=1;strokeColor=none;fillColor=none;" vertex="1" parent="1">
          <mxGeometry x="940" y="437" width="30" height="30" as="geometry" />
        </mxCell>
        <mxCell id="V9V1Q51ZIN7lAQ6END5D-26" value="1" style="text;html=1;align=center;verticalAlign=middle;resizable=0;points=[];autosize=1;strokeColor=none;fillColor=none;" vertex="1" parent="1">
          <mxGeometry x="890" y="140" width="30" height="30" as="geometry" />
        </mxCell>
        <mxCell id="V9V1Q51ZIN7lAQ6END5D-30" value="" style="endArrow=none;endFill=1;endSize=24;html=1;rounded=0;startFill=1;exitX=0.5;exitY=0;exitDx=0;exitDy=0;startArrow=classic;" edge="1" parent="1" source="V9V1Q51ZIN7lAQ6END5D-5">
          <mxGeometry width="160" relative="1" as="geometry">
            <mxPoint x="830" y="100" as="sourcePoint" />
            <mxPoint x="600" y="100" as="targetPoint" />
            <Array as="points">
              <mxPoint x="1010" y="100" />
              <mxPoint x="690" y="100" />
            </Array>
          </mxGeometry>
        </mxCell>
        <mxCell id="V9V1Q51ZIN7lAQ6END5D-31" value="Изменяет" style="edgeLabel;html=1;align=center;verticalAlign=middle;resizable=0;points=[];fontSize=13;" vertex="1" connectable="0" parent="V9V1Q51ZIN7lAQ6END5D-30">
          <mxGeometry x="0.1642" y="-1" relative="1" as="geometry">
            <mxPoint as="offset" />
          </mxGeometry>
        </mxCell>
        <mxCell id="V9V1Q51ZIN7lAQ6END5D-32" value="1" style="text;html=1;align=center;verticalAlign=middle;resizable=0;points=[];autosize=1;strokeColor=none;fillColor=none;" vertex="1" parent="1">
          <mxGeometry x="320" y="220" width="30" height="30" as="geometry" />
        </mxCell>
        <mxCell id="V9V1Q51ZIN7lAQ6END5D-33" value="1" style="text;html=1;align=center;verticalAlign=middle;resizable=0;points=[];autosize=1;strokeColor=none;fillColor=none;" vertex="1" parent="1">
          <mxGeometry x="600" y="70" width="30" height="30" as="geometry" />
        </mxCell>
        <mxCell id="V9V1Q51ZIN7lAQ6END5D-34" value="1" style="text;html=1;align=center;verticalAlign=middle;resizable=0;points=[];autosize=1;strokeColor=none;fillColor=none;" vertex="1" parent="1">
          <mxGeometry x="980" y="70" width="30" height="30" as="geometry" />
        </mxCell>
        <mxCell id="V9V1Q51ZIN7lAQ6END5D-35" value="" style="endArrow=diamondThin;endFill=0;endSize=24;html=1;rounded=0;startFill=0;strokeColor=default;align=center;verticalAlign=middle;fontFamily=Helvetica;fontSize=11;fontColor=default;labelBackgroundColor=default;startArrow=none;exitX=0;exitY=0.5;exitDx=0;exitDy=0;" edge="1" parent="1" source="eT4LEZ8fYCW7e159eP6c-4">
          <mxGeometry width="160" relative="1" as="geometry">
            <mxPoint x="450" y="440" as="sourcePoint" />
            <mxPoint x="320" y="348" as="targetPoint" />
            <Array as="points">
              <mxPoint x="320" y="570" />
            </Array>
          </mxGeometry>
        </mxCell>
        <mxCell id="V9V1Q51ZIN7lAQ6END5D-36" value="Содержит" style="edgeLabel;html=1;align=center;verticalAlign=middle;resizable=0;points=[];fontSize=13;rounded=0;strokeColor=default;fontFamily=Helvetica;fontColor=default;labelBackgroundColor=default;" vertex="1" connectable="0" parent="V9V1Q51ZIN7lAQ6END5D-35">
          <mxGeometry x="0.1642" y="-1" relative="1" as="geometry">
            <mxPoint x="-1" y="2" as="offset" />
          </mxGeometry>
        </mxCell>
        <mxCell id="V9V1Q51ZIN7lAQ6END5D-37" value="" style="endArrow=diamondThin;endFill=0;endSize=24;html=1;rounded=0;startFill=0;strokeColor=default;align=center;verticalAlign=middle;fontFamily=Helvetica;fontSize=11;fontColor=default;labelBackgroundColor=default;startArrow=none;exitX=0.5;exitY=0;exitDx=0;exitDy=0;entryX=0.554;entryY=1.037;entryDx=0;entryDy=0;entryPerimeter=0;" edge="1" parent="1" source="Pe6e0rsCghZo0KKIEObm-4" target="V9V1Q51ZIN7lAQ6END5D-7">
          <mxGeometry width="160" relative="1" as="geometry">
            <mxPoint x="490" y="582" as="sourcePoint" />
            <mxPoint x="330" y="358" as="targetPoint" />
            <Array as="points">
              <mxPoint x="840" y="250" />
              <mxPoint x="1020" y="250" />
            </Array>
          </mxGeometry>
        </mxCell>
        <mxCell id="V9V1Q51ZIN7lAQ6END5D-38" value="Содержит" style="edgeLabel;html=1;align=center;verticalAlign=middle;resizable=0;points=[];fontSize=13;rounded=0;strokeColor=default;fontFamily=Helvetica;fontColor=default;labelBackgroundColor=default;" vertex="1" connectable="0" parent="V9V1Q51ZIN7lAQ6END5D-37">
          <mxGeometry x="0.1642" y="-1" relative="1" as="geometry">
            <mxPoint x="-1" y="2" as="offset" />
          </mxGeometry>
        </mxCell>
        <mxCell id="V9V1Q51ZIN7lAQ6END5D-39" value="*" style="text;html=1;align=center;verticalAlign=middle;resizable=0;points=[];autosize=1;strokeColor=none;fillColor=none;" vertex="1" parent="1">
          <mxGeometry x="845" y="287" width="30" height="30" as="geometry" />
        </mxCell>
        <mxCell id="V9V1Q51ZIN7lAQ6END5D-40" value="*" style="text;html=1;align=center;verticalAlign=middle;resizable=0;points=[];autosize=1;strokeColor=none;fillColor=none;" vertex="1" parent="1">
          <mxGeometry x="440" y="540" width="30" height="30" as="geometry" />
        </mxCell>
        <mxCell id="V9V1Q51ZIN7lAQ6END5D-41" value="1" style="text;html=1;align=center;verticalAlign=middle;resizable=0;points=[];autosize=1;strokeColor=none;fillColor=none;" vertex="1" parent="1">
          <mxGeometry x="1030" y="227" width="30" height="30" as="geometry" />
        </mxCell>
        <mxCell id="V9V1Q51ZIN7lAQ6END5D-42" value="1" style="text;html=1;align=center;verticalAlign=middle;resizable=0;points=[];autosize=1;strokeColor=none;fillColor=none;" vertex="1" parent="1">
          <mxGeometry x="330" y="357" width="30" height="30" as="geometry" />
        </mxCell>
      </root>
    </mxGraphModel>
  </diagram>
</mxfile>
